/* XPM */
static char * icon_label_table_xpm[] = {
"24 24 3 1",
" 	c #FFFFFF",
".	c #010101",
"+	c #BDBEC1",
"                        ",
"                        ",
"                        ",
"   ..................   ",
"   ..................   ",
"   ..++++++++++++++..   ",
"   ..+............+..   ",
"   ..+.++++.+++++.+..   ",
"   ..+.++++.+++++.+..   ",
"   ..+............+..   ",
"   ..+.++++.+++++.+..   ",
"   ..+.++++.+++++.+..   ",
"   ..+............+..   ",
"   ..+.++++.+++++.+..   ",
"   ..+.++++.+++++.+..   ",
"   ..+............+..   ",
"   ..++++++++++++++..   ",
"   ..++++++++++++++..   ",
"   ..++++++++++++++..   ",
"   ..................   ",
"   ..................   ",
"                        ",
"                        ",
"                        "};
